<svg width="141" height="40" viewBox="0 0 141 40" fill="none" xmlns="http://www.w3.org/2000/svg">
<g clip-path="url(#clip0_1138_17374)">
<path fill-rule="evenodd" clip-rule="evenodd" d="M56.6885 15.7203H68.4667V27.9237H56.6885V15.7203Z" fill="#9D9D9D"/>
<path fill-rule="evenodd" clip-rule="evenodd" d="M102.36 20.8051H109.054V27.9237H102.36V20.8051Z" fill="#9D9D9D"/>
<path fill-rule="evenodd" clip-rule="evenodd" d="M80.1602 5.80511H86.939V18.0933H80.1602V5.80511Z" fill="#9D9D9D"/>
<path fill-rule="evenodd" clip-rule="evenodd" d="M141 23.9407H128.883C127.188 23.9407 126.002 23.6017 125.155 22.9237C124.307 22.2458 123.884 21.3136 123.884 20.2119V15.7203H112.105C112.105 15.8051 112.105 15.8898 112.105 15.9746V20.2119C112.19 21.6525 112.529 22.9237 113.122 24.1102C114.393 26.6525 117.19 27.9237 121.511 27.9237H141V23.9407Z" fill="#9D9D9D"/>
<path fill-rule="evenodd" clip-rule="evenodd" d="M60.8401 38.9406C61.7722 38.9406 62.5348 38.6864 63.1279 38.1779C63.7211 37.6695 63.9753 36.9915 63.9753 36.2288C63.9753 35.4661 63.7211 34.7881 63.1279 34.2796C62.5348 33.7712 61.7722 33.5169 60.8401 33.5169C59.908 33.5169 59.1454 33.7712 58.5522 34.2796C57.9591 34.7881 57.7049 35.4661 57.7049 36.2288C57.7049 36.9915 57.9591 37.6695 58.5522 38.1779C59.1454 38.6864 59.908 38.9406 60.8401 38.9406ZM60.8401 39.9576C59.569 39.9576 58.5522 39.5339 57.7896 38.8559C56.9422 38.1779 56.5186 37.2457 56.5186 36.2288C56.5186 35.1271 56.9422 34.2796 57.7049 33.6017C58.5522 32.9237 59.569 32.5847 60.8401 32.5847C62.1111 32.5847 63.1279 32.9237 63.8906 33.6017C64.7379 34.2796 65.0768 35.1271 65.0768 36.2288C65.0768 37.3305 64.7379 38.1779 63.8906 38.8559C63.1279 39.5339 62.0264 39.9576 60.8401 39.9576Z" fill="#9D9D9D"/>
<path fill-rule="evenodd" clip-rule="evenodd" d="M74.6523 39.7034V32.7542H75.2455L79.6517 37.6695V32.7542H80.7533V39.7034H80.1602L75.7539 34.7881V39.7034H74.6523Z" fill="#9D9D9D"/>
<path fill-rule="evenodd" clip-rule="evenodd" d="M91.1758 39.7034V32.7542H92.2773V38.6864H97.4462V39.7034H91.1758Z" fill="#9D9D9D"/>
<path fill-rule="evenodd" clip-rule="evenodd" d="M107.953 32.2458H109.055V39.7034H107.953V32.2458Z" fill="#9D9D9D"/>
<path fill-rule="evenodd" clip-rule="evenodd" d="M119.393 39.7034V32.7542H119.901L124.392 37.6695V32.7542H125.409V39.7034H124.9L120.409 34.7881V39.7034H119.393Z" fill="#9D9D9D"/>
<path fill-rule="evenodd" clip-rule="evenodd" d="M134.137 39.7034V32.7542H140.661V33.7712H135.238V35.4661H138.797V36.483H135.238V38.6864H141V39.7034H134.137Z" fill="#9D9D9D"/>
<path fill-rule="evenodd" clip-rule="evenodd" d="M56.6876 12.9238H68.4659V9.87291H77.1089V5.80511H48.2988V9.87291H56.6876V12.9238Z" fill="#87BB95"/>
<path fill-rule="evenodd" clip-rule="evenodd" d="M88.4642 27.9237H80.1602V20.8051H97.4462L93.5484 25.8051C92.5316 27.2457 90.7521 27.9237 88.4642 27.9237Z" fill="#87BB95"/>
<path fill-rule="evenodd" clip-rule="evenodd" d="M102.36 14.4492L99.5642 18.0933H87.7012L95.4121 8.09325C96.5984 6.56783 98.2084 5.80511 100.327 5.80511H109.055V18.0933H102.36V14.4492Z" fill="#87BB95"/>
<path fill-rule="evenodd" clip-rule="evenodd" d="M129.221 9.87291H141V5.80511H121.849C117.782 5.80511 114.986 7.50003 113.291 10.8899C113.037 11.5678 112.783 12.2458 112.613 12.9238H123.968C124.646 10.8899 126.425 9.87291 129.221 9.87291Z" fill="#87BB95"/>
<path fill-rule="evenodd" clip-rule="evenodd" d="M20.9292 14.8729C18.6414 14.8729 16.3535 16.0593 16.3535 19.7881C16.3535 23.5169 18.6414 24.7881 20.9292 24.7881C23.8102 24.7881 26.6913 20.4661 29.9112 20.3813C33.0464 20.2118 36.0122 24.7881 38.8932 24.7881C41.181 24.7881 43.5536 23.5169 43.5536 19.7881C43.5536 16.0593 41.181 14.8729 38.8932 14.8729C35.8427 14.8729 33.3006 19.1949 30.0807 19.1949C27.2844 19.1949 23.6408 14.8729 20.9292 14.8729Z" fill="#9D9D9D"/>
<path d="M20.9292 14.8729C18.6414 14.8729 16.3535 16.0593 16.3535 19.7881C16.3535 23.5169 18.6414 24.7881 20.9292 24.7881C23.8102 24.7881 26.6913 20.4661 29.9112 20.3813C33.0464 20.2118 36.0122 24.7881 38.8932 24.7881C41.181 24.7881 43.5536 23.5169 43.5536 19.7881C43.5536 16.0593 41.181 14.8729 38.8932 14.8729C35.8427 14.8729 33.3006 19.1949 30.0807 19.1949C27.2844 19.1949 23.6408 14.8729 20.9292 14.8729Z" fill="#9D9D9D"/>
<path fill-rule="evenodd" clip-rule="evenodd" d="M3.6435 16.144C5.67716 16.144 7.28713 17.7542 7.28713 19.7881C7.28713 21.3135 6.43978 22.5847 5.08401 23.1779C3.72824 23.7712 2.11826 23.4322 1.10144 22.4152C-0.000124693 21.3135 -0.254331 19.7881 0.254082 18.4322C0.847229 17.0762 2.203 16.144 3.6435 16.144Z" fill="#9D9D9D"/>
<path fill-rule="evenodd" clip-rule="evenodd" d="M20.8454 32.2458C22.7943 32.2458 24.489 33.9407 24.489 35.9746C24.489 37.4153 23.5569 38.7712 22.2011 39.2797C20.8454 39.8729 19.3201 39.5339 18.2185 38.517C17.2017 37.5 16.8628 35.8899 17.4559 34.5339C18.0491 33.178 19.3201 32.2458 20.8454 32.2458Z" fill="#9D9D9D"/>
<path fill-rule="evenodd" clip-rule="evenodd" d="M20.8454 0.0423584C22.7943 0.0423584 24.489 1.73727 24.489 3.68643C24.489 5.21185 23.5569 6.48304 22.2011 7.07626C20.8454 7.66948 19.3201 7.33049 18.2185 6.31355C17.2017 5.21185 16.8628 3.68643 17.4559 2.33049C18.0491 0.974562 19.3201 0.0423584 20.8454 0.0423584Z" fill="#9D9D9D"/>
<path fill-rule="evenodd" clip-rule="evenodd" d="M12.1171 5.80511C9.2361 5.80511 6.94824 8.178 6.94824 10.9746C6.94824 14.1102 11.2698 16.5678 11.2698 19.8729C11.2698 22.6695 6.94824 26.3136 6.94824 29.0255C6.94824 31.8221 9.2361 34.2797 12.1171 34.2797C14.9981 34.2797 17.8791 29.9577 21.0991 29.8729C24.2343 29.7034 27.2 34.2797 30.0811 34.2797C32.3689 34.2797 34.6568 33.0085 34.6568 29.2797C34.6568 25.6356 32.3689 24.3644 30.0811 24.3644C27.0306 24.3644 24.4885 28.6865 21.2686 28.6865C17.8791 28.6865 12.5408 23.3475 12.4561 19.9577C12.3713 16.6526 17.8791 11.3983 21.0991 11.2288C24.2343 11.1441 27.2 15.7204 30.0811 15.7204C32.3689 15.7204 34.6568 14.4492 34.6568 10.7204C34.6568 6.99156 32.3689 5.80511 30.0811 5.80511C27.0306 5.80511 24.4885 10.1271 21.2686 10.1271C18.3875 10.1271 14.8286 5.80511 12.1171 5.80511Z" fill="#87BB95"/>
</g>
<defs>
<clipPath id="clip0_1138_17374">
<rect width="141" height="40" fill="white"/>
</clipPath>
</defs>
</svg>
